<svg xmlns="http://www.w3.org/2000/svg" width="800" height="500" viewBox="0 0 800 500">
  <defs>
    <linearGradient id="g" x1="0" y1="0" x2="1" y2="1">
      <stop offset="0%" stop-color="#7ad87a"/>
      <stop offset="100%" stop-color="#4db3ff"/>
    </linearGradient>
  </defs>
  <rect width="800" height="500" fill="#0b0e12"/>
  <g opacity="0.12">
    <circle cx="100" cy="120" r="80" fill="url(#g)"/>
    <circle cx="300" cy="60" r="60" fill="url(#g)"/>
    <circle cx="500" cy="140" r="90" fill="url(#g)"/>
    <circle cx="680" cy="80" r="70" fill="url(#g)"/>
  </g>
  <g>
    <rect x="80" y="280" width="640" height="12" fill="#1e2430"/>
    <rect x="120" y="190" width="70" height="90" fill="#1c2330"/>
    <rect x="200" y="150" width="110" height="130" fill="#1a2030"/>
    <rect x="330" y="180" width="90" height="100" fill="#1e2430"/>
    <rect x="430" y="120" width="120" height="160" fill="#21283a"/>
    <rect x="560" y="170" width="100" height="110" fill="#1a2030"/>
  </g>
  <g>
    <rect x="520" y="210" width="20" height="70" fill="#7ad87a"/>
    <rect x="540" y="190" width="20" height="90" fill="#7ad87a"/>
    <rect x="560" y="230" width="20" height="50" fill="#7ad87a"/>
  </g>
  <g font-family="Arial, Helvetica, sans-serif" font-size="26" fill="#e6edf3">
    <text x="80" y="360">Kentte Umut Notları</text>
    <text x="80" y="395" font-size="16" fill="#aab2bf">Küçük notlar, büyük umutlar</text>
  </g>
</svg>
